<?xml version="1.0" encoding="utf-8"?>
<!-- Generator: Adobe Illustrator 27.5.0, SVG Export Plug-In . SVG Version: 6.00 Build 0)  -->
<svg version="1.1" id="OBJECTS" xmlns="http://www.w3.org/2000/svg" xmlns:xlink="http://www.w3.org/1999/xlink" x="0px" y="0px"
	 width="500px" height="500px" viewBox="0 0 500 500" enable-background="new 0 0 500 500" xml:space="preserve">
<linearGradient id="path504_00000068673496227012405870000010896075280846032518_" gradientUnits="userSpaceOnUse" x1="338.1501" y1="558.4288" x2="916.431" y2="558.4288" gradientTransform="matrix(0 0.7751 0.7751 0 -182.8382 -236.2138)">
	<stop  offset="0" style="stop-color:#DF840C"/>
	<stop  offset="0.1798" style="stop-color:#CC6F16"/>
	<stop  offset="0.439" style="stop-color:#F9ED6E"/>
	<stop  offset="0.6019" style="stop-color:#E1A32A"/>
	<stop  offset="0.8423" style="stop-color:#ECC46D"/>
	<stop  offset="1" style="stop-color:#ECCF50"/>
</linearGradient>
<circle id="path504" fill="url(#path504_00000068673496227012405870000010896075280846032518_)" cx="250" cy="250" r="221.4"/>
<linearGradient id="circle505-3_00000094597994704514046700000013849536392552267952_" gradientUnits="userSpaceOnUse" x1="720.1934" y1="569.8934" x2="1298.5051" y2="569.8934" gradientTransform="matrix(0 -0.7353 0.7353 0 -169.0426 992.1752)">
	<stop  offset="0" style="stop-color:#DF840C"/>
	<stop  offset="0.1798" style="stop-color:#CC6F16"/>
	<stop  offset="0.439" style="stop-color:#F9ED6E"/>
	<stop  offset="0.6019" style="stop-color:#E1A32A"/>
	<stop  offset="0.8423" style="stop-color:#ECC46D"/>
	<stop  offset="1" style="stop-color:#ECCF50"/>
</linearGradient>
<circle id="circle505-3" fill="url(#circle505-3_00000094597994704514046700000013849536392552267952_)" cx="250" cy="250" r="210.1"/>
<linearGradient id="path506_00000027575035248109144850000012397118873520000429_" gradientUnits="userSpaceOnUse" x1="2395.0413" y1="502.6004" x2="2815.5916" y2="502.6004" gradientTransform="matrix(112.2797 0 0 112.2797 62.2386 -56181.8242)">
	<stop  offset="0" style="stop-color:#DF840C"/>
	<stop  offset="0.1798" style="stop-color:#CC6F16"/>
	<stop  offset="0.439" style="stop-color:#F9ED6E"/>
	<stop  offset="0.6019" style="stop-color:#E1A32A"/>
	<stop  offset="0.8423" style="stop-color:#ECC46D"/>
	<stop  offset="1" style="stop-color:#ECCF50"/>
</linearGradient>
<path id="path506" fill="url(#path506_00000027575035248109144850000012397118873520000429_)" d="M440.6,250c0,11.9-17,18.5-19,30.2
	c-2.1,11.7,11.6,23.7,7.5,34.9c-4.1,11.2-22.3,11.6-28.2,21.9c-5.9,10.3,2.8,26.3-4.9,35.4c-7.6,9.1-24.9,3.3-34,10.9
	c-9.1,7.6-6.4,25.7-16.7,31.6c-10.3,5.9-24.5-5.4-35.7-1.4c-11.2,4.1-14.8,21.9-26.5,24c-11.7,2.1-21.2-13.5-33.1-13.5
	c-11.9,0-21.4,15.6-33.1,13.5c-11.7-2.1-15.3-19.9-26.5-24c-11.2-4.1-25.4,7.3-35.7,1.4c-10.3-5.9-7.6-24-16.7-31.6
	c-9.1-7.6-26.4-1.8-34-10.9c-7.6-9.1,1.1-25.1-4.9-35.4c-5.9-10.3-24.2-10.7-28.2-21.9c-4.1-11.2,9.6-23.2,7.5-34.9
	c-2.1-11.7-19-18.3-19-30.2s17-18.5,19-30.2c2.1-11.7-11.6-23.7-7.5-34.9c4.1-11.2,22.3-11.6,28.2-21.9c5.9-10.3-2.8-26.3,4.9-35.4
	c7.6-9.1,24.9-3.3,34-10.9c9.1-7.6,6.4-25.7,16.7-31.6c10.3-5.9,24.5,5.4,35.7,1.4c11.2-4.1,14.8-21.9,26.5-24
	c11.7-2.1,21.2,13.5,33.1,13.5c11.9,0,21.4-15.6,33.1-13.5c11.7,2.1,15.3,19.9,26.5,24c11.2,4.1,25.4-7.3,35.7-1.4
	c10.3,6,7.6,24,16.7,31.6c9.1,7.6,26.4,1.8,34,10.9c7.6,9.1-1.1,25.1,4.9,35.4c5.9,10.3,24.2,10.7,28.2,21.9
	c4.1,11.2-9.6,23.2-7.5,34.9C423.6,231.5,440.6,238.1,440.6,250L440.6,250z"/>
<linearGradient id="path508_00000002377805264300932760000007248862017949807799_" gradientUnits="userSpaceOnUse" x1="2385.8977" y1="502.5811" x2="2806.4482" y2="502.5811" gradientTransform="matrix(-103.1316 0 0 103.1316 381.5948 -51581.9922)">
	<stop  offset="0" style="stop-color:#13120E"/>
	<stop  offset="1" style="stop-color:#563A2E"/>
</linearGradient>
<path id="path508" fill="url(#path508_00000002377805264300932760000007248862017949807799_)" d="M430.8,250
	c0,11.3-16.1,17.6-18.1,28.7c-2,11.1,11,22.5,7.2,33.1c-3.9,10.6-21.1,11-26.8,20.8c-5.6,9.8,2.6,24.9-4.6,33.6s-23.6,3.1-32.3,10.4
	c-8.7,7.3-6,24.3-15.8,30c-9.8,5.6-23.3-5.2-33.9-1.3c-10.6,3.9-14,20.8-25.1,22.8c-11.1,2-20.1-12.8-31.4-12.8
	c-11.3,0-20.3,14.8-31.4,12.8c-11.1-2-14.5-18.9-25.1-22.8c-10.6-3.9-24.1,6.9-33.9,1.3c-9.8-5.6-7.2-22.7-15.8-30
	c-8.7-7.3-25-1.7-32.3-10.4c-7.3-8.7,1-23.8-4.6-33.6c-5.6-9.8-22.9-10.2-26.8-20.8c-3.9-10.6,9.1-22,7.2-33.1
	c-2-11.1-18.1-17.4-18.1-28.7c0-11.3,16.1-17.6,18.1-28.7c2-11.1-11-22.5-7.2-33.1c3.9-10.6,21.1-11,26.8-20.8
	c5.6-9.8-2.6-24.9,4.6-33.6c7.3-8.7,23.6-3.1,32.3-10.4c8.7-7.3,6-24.3,15.8-30c9.8-5.6,23.3,5.2,33.9,1.3
	c10.6-3.9,14-20.8,25.1-22.8c11.1-2,20.1,12.8,31.4,12.8c11.3,0,20.3-14.8,31.4-12.8c11.1,2,14.5,18.9,25.1,22.8
	c10.6,3.9,24.1-6.9,33.9-1.3c9.8,5.6,7.2,22.7,15.8,30c8.7,7.3,25,1.7,32.3,10.4c7.3,8.7-1,23.8,4.6,33.6
	c5.6,9.8,22.9,10.2,26.8,20.8c3.9,10.6-9.1,22-7.2,33.1C414.7,232.4,430.8,238.7,430.8,250L430.8,250z"/>
<linearGradient id="circle509_00000030457130466864795040000015288566482228318085_" gradientUnits="userSpaceOnUse" x1="805.5437" y1="663.5313" x2="1383.8209" y2="663.5313" gradientTransform="matrix(0 -0.5112 0.5112 0 -89.1972 809.6023)">
	<stop  offset="0" style="stop-color:#F19A0F"/>
	<stop  offset="0.1798" style="stop-color:#E78A1C"/>
	<stop  offset="0.439" style="stop-color:#FFF873"/>
	<stop  offset="0.8423" style="stop-color:#F8D375"/>
	<stop  offset="1" style="stop-color:#F8E057"/>
</linearGradient>
<circle id="circle509" fill="url(#circle509_00000030457130466864795040000015288566482228318085_)" cx="250" cy="250" r="146"/>
<linearGradient id="circle510_00000147914022258036166910000003091638094867075242_" gradientUnits="userSpaceOnUse" x1="223.731" y1="686.5767" x2="802.1006" y2="686.5767" gradientTransform="matrix(0 0.4776 0.4776 0 -77.909 5.0306)">
	<stop  offset="0" style="stop-color:#E2951B"/>
	<stop  offset="0.4899" style="stop-color:#F9E562"/>
	<stop  offset="1" style="stop-color:#E39920"/>
</linearGradient>
<circle id="circle510" fill="url(#circle510_00000147914022258036166910000003091638094867075242_)" cx="250" cy="250" r="136.5"/>
<g id="text1">
	<g enable-background="new    ">
		<path fill="#3E2A1F" d="M150.7,192.3c10.7,0,13.1-5.2,15.3-11.1h9.3v88.4h-13.9v-67.5h-10.7V192.3z"/>
		<path fill="#3E2A1F" d="M191,202.4c0-14.2,7.5-22.2,21.1-22.2c13.6,0,21.1,8.1,21.1,22.2v46c0,14.2-7.5,22.2-21.1,22.2
			c-13.6,0-21.1-8.1-21.1-22.2V202.4z M204.9,249.3c0,6.3,2.8,8.7,7.2,8.7c4.4,0,7.2-2.4,7.2-8.7v-47.8c0-6.3-2.8-8.7-7.2-8.7
			c-4.4,0-7.2,2.4-7.2,8.7V249.3z"/>
		<path fill="#3E2A1F" d="M241,202.4c0-14.2,7.5-22.2,21.1-22.2c13.6,0,21.1,8.1,21.1,22.2v46c0,14.2-7.5,22.2-21.1,22.2
			c-13.6,0-21.1-8.1-21.1-22.2V202.4z M254.9,249.3c0,6.3,2.8,8.7,7.2,8.7s7.2-2.4,7.2-8.7v-47.8c0-6.3-2.8-8.7-7.2-8.7
			s-7.2,2.4-7.2,8.7V249.3z"/>
		<path fill="#3E2A1F" d="M291.4,194.7c0-9.1,4.7-14.2,13.4-14.2c8.7,0,13.4,5.1,13.4,14.2v29.1c0,9.1-4.7,14.2-13.4,14.2
			c-8.7,0-13.4-5.1-13.4-14.2V194.7z M300.3,224.4c0,3.9,1.6,5.6,4.5,5.6c2.8,0,4.5-1.6,4.5-5.6v-30.3c0-3.9-1.8-5.6-4.5-5.6
			c-2.9,0-4.5,1.6-4.5,5.6V224.4z M339.7,181.2h8.2L313,269.6h-8.2L339.7,181.2z M335.3,227c0-9.1,4.7-14.2,13.4-14.2
			c8.7,0,13.4,5.1,13.4,14.2v29.1c0,9.1-4.7,14.2-13.4,14.2c-8.7,0-13.4-5.1-13.4-14.2V227z M344.1,256.7c0,3.9,1.6,5.6,4.5,5.6
			c2.8,0,4.5-1.6,4.5-5.6v-30.3c0-3.9-1.8-5.6-4.5-5.6c-2.9,0-4.5,1.6-4.5,5.6V256.7z"/>
	</g>
</g>
<g id="text2">
	<g enable-background="new    ">
		<path fill="#3E2A1F" d="M181.8,286.3c-0.1-0.1-0.3-0.3-0.5-0.4c-0.2-0.2-0.5-0.3-0.8-0.4s-0.7-0.2-1.1-0.3
			c-0.4-0.1-0.8-0.1-1.2-0.1c-0.9,0-1.5,0.2-2,0.5c-0.4,0.3-0.6,0.8-0.6,1.3c0,0.4,0.1,0.8,0.4,1s0.6,0.5,1.1,0.6
			c0.5,0.2,1.1,0.3,1.8,0.5c0.9,0.2,1.7,0.5,2.4,0.8c0.7,0.3,1.2,0.7,1.5,1.2c0.4,0.5,0.5,1.1,0.5,1.9c0,0.7-0.1,1.2-0.4,1.7
			c-0.3,0.5-0.6,0.9-1.1,1.2c-0.5,0.3-1,0.5-1.6,0.7c-0.6,0.2-1.2,0.2-1.9,0.2c-0.7,0-1.3-0.1-2-0.2c-0.7-0.1-1.3-0.4-1.9-0.6
			s-1.2-0.6-1.7-1l1-1.8c0.2,0.2,0.4,0.3,0.7,0.5c0.3,0.2,0.7,0.4,1.1,0.6c0.4,0.2,0.9,0.3,1.3,0.4c0.5,0.1,1,0.2,1.5,0.2
			c0.8,0,1.5-0.1,1.9-0.4c0.4-0.3,0.7-0.7,0.7-1.3c0-0.4-0.1-0.8-0.4-1.1c-0.3-0.3-0.7-0.5-1.3-0.7c-0.5-0.2-1.2-0.4-2-0.6
			c-0.9-0.2-1.6-0.5-2.2-0.8c-0.6-0.3-1-0.6-1.3-1.1c-0.3-0.4-0.4-1-0.4-1.7c0-0.9,0.2-1.6,0.6-2.2c0.4-0.6,1-1.1,1.7-1.4
			c0.7-0.3,1.6-0.5,2.5-0.5c0.6,0,1.2,0.1,1.7,0.2c0.5,0.1,1.1,0.3,1.5,0.5c0.5,0.2,0.9,0.5,1.3,0.8L181.8,286.3z"/>
		<path fill="#3E2A1F" d="M190.9,283.2h2l5.2,13.4h-2.2l-1.3-3.6h-5.3l-1.3,3.6h-2.2L190.9,283.2z M194,291.3l-2.1-5.9l-2.1,5.9H194
			z"/>
		<path fill="#3E2A1F" d="M210.1,285h-4.4v11.5h-2.1V285h-4.5v-1.9h11V285z"/>
		<path fill="#3E2A1F" d="M213.8,296.5v-13.4h2.1v13.4H213.8z"/>
		<path fill="#3E2A1F" d="M228.7,286.3c-0.1-0.1-0.3-0.3-0.5-0.4c-0.2-0.2-0.5-0.3-0.8-0.4s-0.7-0.2-1.1-0.3
			c-0.4-0.1-0.8-0.1-1.2-0.1c-0.9,0-1.5,0.2-2,0.5c-0.4,0.3-0.6,0.8-0.6,1.3c0,0.4,0.1,0.8,0.4,1s0.6,0.5,1.1,0.6
			c0.5,0.2,1.1,0.3,1.8,0.5c0.9,0.2,1.7,0.5,2.4,0.8c0.7,0.3,1.2,0.7,1.5,1.2c0.4,0.5,0.5,1.1,0.5,1.9c0,0.7-0.1,1.2-0.4,1.7
			c-0.3,0.5-0.6,0.9-1.1,1.2c-0.5,0.3-1,0.5-1.6,0.7c-0.6,0.2-1.2,0.2-1.9,0.2c-0.7,0-1.3-0.1-2-0.2c-0.7-0.1-1.3-0.4-1.9-0.6
			s-1.2-0.6-1.7-1l1-1.8c0.2,0.2,0.4,0.3,0.7,0.5c0.3,0.2,0.7,0.4,1.1,0.6c0.4,0.2,0.9,0.3,1.3,0.4c0.5,0.1,1,0.2,1.5,0.2
			c0.8,0,1.5-0.1,1.9-0.4c0.4-0.3,0.7-0.7,0.7-1.3c0-0.4-0.1-0.8-0.4-1.1c-0.3-0.3-0.7-0.5-1.3-0.7c-0.5-0.2-1.2-0.4-2-0.6
			c-0.9-0.2-1.6-0.5-2.2-0.8c-0.6-0.3-1-0.6-1.3-1.1c-0.3-0.4-0.4-1-0.4-1.7c0-0.9,0.2-1.6,0.6-2.2c0.4-0.6,1-1.1,1.7-1.4
			c0.7-0.3,1.6-0.5,2.5-0.5c0.6,0,1.2,0.1,1.7,0.2c0.5,0.1,1.1,0.3,1.5,0.5c0.5,0.2,0.9,0.5,1.3,0.8L228.7,286.3z"/>
		<path fill="#3E2A1F" d="M234.2,296.5v-13.4h8.9v1.9h-6.8v4h5.7v1.7h-5.7v5.8H234.2z"/>
		<path fill="#3E2A1F" d="M249.8,283.2h2l5.2,13.4h-2.2l-1.3-3.6h-5.3l-1.3,3.6h-2.2L249.8,283.2z M252.9,291.3l-2.1-5.9l-2.1,5.9
			H252.9z"/>
		<path fill="#3E2A1F" d="M259.2,289.7c0-0.8,0.1-1.6,0.4-2.4c0.3-0.8,0.7-1.5,1.3-2.1c0.6-0.6,1.2-1.2,2-1.5
			c0.8-0.4,1.7-0.6,2.7-0.6c1.2,0,2.3,0.3,3.1,0.8c0.9,0.5,1.5,1.2,1.9,2.1l-1.7,1.1c-0.2-0.5-0.5-1-0.9-1.3s-0.8-0.5-1.3-0.7
			c-0.5-0.1-0.9-0.2-1.3-0.2c-0.7,0-1.3,0.1-1.8,0.4c-0.5,0.3-1,0.7-1.3,1.1s-0.6,1-0.8,1.6c-0.2,0.6-0.3,1.2-0.3,1.7
			c0,0.7,0.1,1.3,0.3,1.9c0.2,0.6,0.5,1.1,0.9,1.6s0.8,0.8,1.4,1.1s1.1,0.4,1.7,0.4c0.4,0,0.9-0.1,1.4-0.2s0.9-0.4,1.3-0.7
			c0.4-0.3,0.7-0.7,0.9-1.2l1.7,1c-0.3,0.7-0.7,1.2-1.3,1.7c-0.6,0.5-1.2,0.8-2,1.1c-0.7,0.2-1.4,0.4-2.2,0.4
			c-0.9,0-1.8-0.2-2.5-0.6c-0.8-0.4-1.5-0.9-2-1.6s-1-1.4-1.3-2.2S259.2,290.6,259.2,289.7z"/>
		<path fill="#3E2A1F" d="M284.6,285h-4.4v11.5H278V285h-4.5v-1.9h11V285z"/>
		<path fill="#3E2A1F" d="M288.2,296.5v-13.4h2.1v13.4H288.2z"/>
		<path fill="#3E2A1F" d="M300.8,296.6c-0.9,0-1.8-0.2-2.6-0.6c-0.8-0.4-1.5-0.9-2-1.5c-0.6-0.6-1-1.4-1.3-2.2
			c-0.3-0.8-0.5-1.6-0.5-2.5c0-0.9,0.2-1.7,0.5-2.5c0.3-0.8,0.8-1.5,1.4-2.2c0.6-0.6,1.3-1.1,2-1.5c0.8-0.4,1.6-0.6,2.5-0.6
			c1,0,1.8,0.2,2.6,0.6c0.8,0.4,1.4,0.9,2,1.6c0.6,0.7,1,1.4,1.3,2.2c0.3,0.8,0.5,1.6,0.5,2.5c0,0.9-0.2,1.7-0.5,2.5
			c-0.3,0.8-0.8,1.5-1.3,2.2c-0.6,0.6-1.3,1.1-2,1.5C302.6,296.4,301.7,296.6,300.8,296.6z M296.6,289.9c0,0.6,0.1,1.3,0.3,1.8
			s0.5,1.1,0.8,1.6s0.8,0.8,1.3,1.1s1.1,0.4,1.8,0.4c0.7,0,1.3-0.1,1.8-0.4c0.5-0.3,1-0.6,1.3-1.1c0.4-0.5,0.6-1,0.8-1.6
			c0.2-0.6,0.3-1.2,0.3-1.8c0-0.6-0.1-1.2-0.3-1.8c-0.2-0.6-0.5-1.1-0.9-1.6c-0.4-0.5-0.8-0.8-1.3-1.1s-1.1-0.4-1.7-0.4
			c-0.7,0-1.3,0.1-1.8,0.4c-0.5,0.3-1,0.6-1.3,1.1c-0.4,0.5-0.6,1-0.8,1.6C296.7,288.7,296.6,289.3,296.6,289.9z"/>
		<path fill="#3E2A1F" d="M313.4,287.1v9.4h-2.1v-13.4h1.7l7.6,9.7v-9.6h2.1v13.3h-1.8L313.4,287.1z"/>
	</g>
</g>
<g enable-background="new    ">
	<path fill="#3E2A1F" d="M194.3,316.1c-0.9,0-1.7-0.2-2.5-0.5c-0.8-0.4-1.4-0.9-2-1.5c-0.6-0.6-1-1.4-1.3-2.2
		c-0.3-0.8-0.5-1.7-0.5-2.6c0-0.9,0.2-1.8,0.5-2.6s0.8-1.5,1.3-2.1s1.2-1.1,2-1.5s1.6-0.5,2.5-0.5c1.3,0,2.4,0.3,3.2,0.8
		c0.9,0.5,1.5,1.2,2,2.1l-1.6,1.2c-0.4-0.7-0.9-1.3-1.5-1.6c-0.6-0.4-1.3-0.5-2.1-0.5c-0.6,0-1.2,0.1-1.7,0.4
		c-0.5,0.3-0.9,0.6-1.3,1.1c-0.4,0.5-0.6,1-0.8,1.6c-0.2,0.6-0.3,1.2-0.3,1.8c0,0.7,0.1,1.3,0.3,1.9c0.2,0.6,0.5,1.1,0.9,1.6
		s0.8,0.8,1.4,1s1.1,0.4,1.7,0.4c0.7,0,1.4-0.2,2.1-0.6c0.7-0.4,1.3-0.9,1.9-1.7v2.1C197.2,315.5,195.9,316.1,194.3,316.1z
		 M198.2,310.9h-2.8v-1.6h4.6v6.8h-1.8V310.9z"/>
	<path fill="#3E2A1F" d="M209.8,316.1c-1.1,0-2-0.2-2.7-0.5c-0.7-0.4-1.3-0.9-1.8-1.5c-0.4-0.6-0.8-1.3-1-2.1
		c-0.2-0.8-0.3-1.6-0.3-2.5v-6.8h2.1v6.8c0,0.6,0.1,1.2,0.2,1.8c0.1,0.6,0.3,1.1,0.6,1.5c0.3,0.5,0.6,0.8,1.1,1.1s1,0.4,1.7,0.4
		c0.7,0,1.3-0.1,1.8-0.4c0.5-0.3,0.8-0.6,1.1-1.1s0.5-1,0.6-1.5c0.1-0.6,0.2-1.1,0.2-1.8v-6.8h2.1v6.8c0,0.9-0.1,1.8-0.3,2.6
		c-0.2,0.8-0.6,1.5-1,2.1c-0.5,0.6-1.1,1.1-1.8,1.4C211.7,316,210.8,316.1,209.8,316.1z"/>
	<path fill="#3E2A1F" d="M223.6,302.7h2l5.2,13.4h-2.2l-1.3-3.6h-5.3l-1.3,3.6h-2.2L223.6,302.7z M226.7,310.9l-2.1-5.9l-2.1,5.9
		H226.7z"/>
	<path fill="#3E2A1F" d="M234.3,316.1v-13.4h5.8c0.6,0,1.2,0.1,1.7,0.4s0.9,0.6,1.3,1s0.7,0.9,0.9,1.4c0.2,0.5,0.3,1,0.3,1.6
		c0,0.6-0.1,1.2-0.3,1.7c-0.2,0.5-0.5,1-0.9,1.4c-0.4,0.4-0.9,0.7-1.4,0.8l3.1,5.1h-2.4l-2.9-4.6h-3.1v4.6H234.3z M236.4,309.5h3.7
		c0.4,0,0.7-0.1,1-0.3c0.3-0.2,0.5-0.5,0.7-0.9c0.2-0.4,0.3-0.8,0.3-1.2c0-0.5-0.1-0.9-0.3-1.3s-0.5-0.7-0.8-0.9s-0.7-0.3-1-0.3
		h-3.6V309.5z"/>
	<path fill="#3E2A1F" d="M252.5,302.7h2l5.2,13.4h-2.2l-1.3-3.6h-5.3l-1.3,3.6h-2.2L252.5,302.7z M255.6,310.9l-2.1-5.9l-2.1,5.9
		H255.6z"/>
	<path fill="#3E2A1F" d="M265.3,306.6v9.4h-2.1v-13.4h1.7l7.6,9.7v-9.6h2.1v13.3h-1.8L265.3,306.6z"/>
	<path fill="#3E2A1F" d="M289.3,304.6h-4.4v11.5h-2.1v-11.5h-4.5v-1.9h11V304.6z"/>
	<path fill="#3E2A1F" d="M302.2,314.2v1.9H293v-13.4h9v1.9h-6.9v3.8h6v1.7h-6v4.1H302.2z"/>
	<path fill="#3E2A1F" d="M315.4,314.2v1.9h-9.2v-13.4h9v1.9h-6.9v3.8h6v1.7h-6v4.1H315.4z"/>
</g>
<path id="path120" fill="#3E2A1F" d="M250,326.5l6.1,12.3l13.6,2l-9.8,9.6l2.3,13.5l-12.2-6.4l-12.2,6.4l2.3-13.5l-9.8-9.6l13.6-2
	L250,326.5z"/>
<path id="path140" fill="#3E2A1F" d="M292.4,326.5l5,10.1l11.2,1.6l-8.1,7.9l1.9,11.2l-10-5.3l-10,5.3l1.9-11.2l-8.1-7.9l11.2-1.6
	L292.4,326.5z"/>
<path id="path142" fill="#3E2A1F" d="M207.6,326.5l5,10.1l11.2,1.6l-8.1,7.9l1.9,11.2l-10-5.3l-10,5.3l1.9-11.2l-8.1-7.9l11.2-1.6
	L207.6,326.5z"/>
<path id="path145" fill="#3E2A1F" d="M250,129.4l6.1,12.3l13.6,2l-9.8,9.6l2.3,13.5l-12.2-6.4l-12.2,6.4l2.3-13.5l-9.8-9.6l13.6-2
	L250,129.4z"/>
<path id="path182" fill="#3E2A1F" d="M292.4,136l5,10.1l11.2,1.6l-8.1,7.9l1.9,11.2l-10-5.3l-10,5.3l1.9-11.2l-8.1-7.9l11.2-1.6
	L292.4,136z"/>
<path id="path183" fill="#3E2A1F" d="M207.6,136l5,10.1l11.2,1.6l-8.1,7.9l1.9,11.2l-10-5.3l-10,5.3l1.9-11.2l-8.1-7.9l11.2-1.6
	L207.6,136z"/>
</svg>
