<svg xmlns="http://www.w3.org/2000/svg" height="152" width="477" id="svg1" xml:space="preserve" version="1.1"><defs id="defs7"></defs>
<style id="style1" type="text/css">
	.st0{fill:#E30613;}
	.st1{fill:#FFFFFF;}
</style>
<g id="g7">
	<g id="g1">
		<path id="path1" d="M 75.5,0 C 33.8,0 0,33.8 0,75.5 0,117.2 33.8,151 75.5,151 117.2,151 151,117.2 151,75.5 151,33.8 117.2,0 75.5,0" class="st0"></path>
	</g>
	<rect id="rect1" height="92.199997" width="14.6" y="26.299999" x="160.39999"></rect>
	<g id="g2">
		<path id="path2" d="m 215.4,72.5 c 9.6,0 14.3,6.7 14.5,11.7 h -28.7 c 0.5,-5.1 4.8,-11.7 14.2,-11.7 m 17.9,28.2 c 0,0 -5.7,5.9 -15.9,5.9 -9.1,0 -15.1,-6.6 -16.2,-11.7 h 43.2 c 0.1,-2.2 0.1,-4.4 0.1,-5.5 0,-17.8 -13.3,-30.1 -29.2,-30.1 -16.7,0 -29,13.4 -29,30.4 0,17 13.5,30.4 31.1,30.4 14,0 23.2,-8.3 23.2,-8.3 z"></path>
	</g>
	<polygon id="polygon2" points="284.8,88 310.2,60.7 291.3,60.7 270.5,83.5 270.5,26.3 255.9,26.3 255.9,118.5 270.5,118.5 270.5,93.3 292.6,118.5 311.9,118.5"></polygon>
	<g id="g6">
		<path id="path3" d="m 348.4,106.3 c -3.9,0 -7.6,-2.1 -7.6,-9.1 V 73.9 h 17.4 V 60.7 H 340.8 V 43.5 h -14.6 v 17.2 h -11.3 v 13.2 h 11.3 v 25.6 c 0,12.3 8.5,20.5 19.8,20.5 8.4,0 13.9,-3.8 13.9,-3.8 l -5.4,-12 c 0,0 -2.8,2.1 -6.1,2.1"></path>
		<path id="path4" d="m 396.1,106.3 c -9.9,0 -16,-7.7 -16,-16.7 0,-9 6.1,-16.7 16,-16.7 9.9,0 16,7.7 16,16.7 0,9 -6.1,16.7 -16,16.7 m 0,-47.1 c -17.2,0 -30.9,13.3 -30.9,30.4 0,17 13.7,30.4 30.9,30.4 17.2,0 30.9,-13.4 30.9,-30.4 -0.1,-17.1 -13.7,-30.4 -30.9,-30.4"></path>
		<path id="path5" d="m 466.2,59.2 c -10.7,0 -15.7,9.9 -15.7,9.9 v -8.4 h -13.9 v 57.8 h 14.6 V 80.7 c 0,0 4,-7.8 12.9,-7.8 4.3,0 7,1.3 7,1.3 L 476.2,61 c 0,0.1 -4.7,-1.8 -10,-1.8"></path>
		<path id="path6" d="m 47.5,72 c -1.6,-9.5 2.9,-23.5 20,-28.1 17.5,-4.7 29.1,5.2 32,14.2 z m 5.1,19.2 77.6,-20.8 c -0.2,-3 -0.7,-5.9 -1.4,-8.7 -0.1,-0.4 -0.2,-0.8 -0.3,-1.2 -0.1,-0.3 -0.2,-0.6 -0.2,-0.9 -0.1,-0.4 -0.2,-0.8 -0.3,-1.1 -7,-22.1 -27.6,-38.1 -52,-38.1 -30.1,0 -54.5,24.4 -54.5,54.5 0,30.1 24.4,54.5 54.5,54.5 22.3,0 41.4,-13.4 49.9,-32.5 L 113.7,86.2 c 0,0 -7.5,13.4 -25.9,18.3 C 71.1,109 57.1,100 52.6,91.2" class="st1"></path>
	</g>
</g>
</svg>
